#!OML:ASF F:\VICON\USERDATA\INSTALL\rory3\rory3.ASF
:FULLY-SPECIFIED
:DEGREES
622
root 2.86594 16.7415 -0.0948413 15.3254 4.87732 11.1405
lowerback -6.86876 1.86458 0.797958
upperback -2.4477 2.60564 -7.23419
thorax 1.6912 1.31203 -7.81817
lowerneck -2.43849 14.6493 5.52396
upperneck 47.9549 24.3575 -1.44265
head 20.3675 10.7086 2.50764
rclavicle -4.96962e-015 -7.55382e-015
rhumerus -37.1199 3.06113 -92.7983
rradius 42.5384
rwrist -38.2055
rhand -7.7843 -50.9577
rfingers 7.12502
rthumb 18.1164 -80.1341
lclavicle -4.96962e-015 -7.55382e-015
lhumerus -28.1632 -20.8332 82.4292
lradius 41.2008
lwrist 73.834
lhand -38.5676 -13.5663
lfingers 7.12502
lthumb -11.5866 16.0934
rfemur -51.294 24.0777 -6.56604
rtibia 73.9901
rfoot 4.1271 10.0761
rtoes -40.3984
lfemur -32.3892 -6.71564 -36.102
ltibia 38.2337
lfoot -16.6773 10.6173
ltoes 5.3772
623
root 2.86573 16.7399 -0.0982765 15.3341 4.84535 11.1483
lowerback -6.84427 1.86847 0.755846
upperback -2.46376 2.61167 -7.22765
thorax 1.65959 1.31407 -7.7867
lowerneck -2.39403 14.6266 5.54238
upperneck 47.9715 24.3187 -1.44078
head 20.3685 10.6984 2.49509
rclavicle 2.09718e-014 -5.56597e-015
rhumerus -37.1117 3.16949 -92.8468
rradius 42.4887
rwrist -38.4274
rhand -7.35708 -50.9871
rfingers 7.12502
rthumb 18.5274 -80.1248
lclavicle 2.09718e-014 -5.56597e-015
lhumerus -28.1757 -20.7832 82.4248
lradius 41.1816
lwrist 73.7956
lhand -38.475 -13.5616
lfingers 7.12502
lthumb -11.4974 16.1031
rfemur -51.3446 24.0641 -6.5795
rtibia 74.0219
rfoot 4.23805 9.90446
rtoes -39.9383
lfemur -32.5043 -6.70025 -36.1167
ltibia 38.4222
lfoot -16.7978 10.6571
ltoes 5.31449
624
root 2.86785 16.7445 -0.0983503 15.3244 4.85862 11.1283
lowerback -6.83316 1.88915 0.792194
upperback -2.47507 2.63626 -7.2295
thorax 1.64676 1.32608 -7.80808
lowerneck -2.36198 14.6029 5.55999
upperneck 48.0384 24.269 -1.38573
head 20.394 10.6872 2.50987
rclavicle -2.04748e-014 9.26337e-014
rhumerus -37.1597 3.1629 -92.8676
rradius 42.4845
rwrist -38.583
rhand -6.92035 -50.9693
rfingers 7.12502
rthumb 18.9474 -80.0664
lclavicle -2.04748e-014 9.26337e-014
lhumerus -28.1822 -20.8631 82.4572
lradius 41.1849
lwrist 73.8994
lhand -38.5976 -13.3252
lfingers 7.12502
lthumb -11.6156 16.3329
rfemur -51.2908 24.0645 -6.5489
rtibia 73.9735
rfoot 4.21251 9.91864
rtoes -40.2366
lfemur -32.549 -6.72754 -36.0856
ltibia 38.433
lfoot -16.8036 10.6124
ltoes 5.92254
625
root 2.86875 16.7493 -0.0967701 15.3125 4.94 11.0949
lowerback -6.86902 1.87905 0.844907
upperback -2.43869 2.62214 -7.21502
thorax 1.70422 1.32082 -7.82301
lowerneck -2.271 14.5857 5.6248
upperneck 47.9505 24.2652 -1.50345
head 20.3514 10.6926 2.43227
rclavicle -1.25731e-014 9.93923e-015
rhumerus -37.1256 3.10439 -92.8426
rradius 42.467
rwrist -38.5374
rhand -6.97252 -50.8546
rfingers 7.12502
rthumb 18.8973 -79.9567
lclavicle -1.25731e-014 9.93923e-015
lhumerus -28.1311 -20.8928 82.4643
lradius 41.1486
lwrist 73.8877
lhand -38.3873 -13.3664
lfingers 7.12502
lthumb -11.4128 16.303
rfemur -51.1835 24.0348 -6.45806
rtibia 73.9398
rfoot 4.15438 9.85536
rtoes -40.4421
lfemur -32.5463 -6.76985 -36.0228
ltibia 38.4141
lfoot -16.7974 10.4997
ltoes 6.5955
626
root 2.86644 16.7456 -0.0964482 15.3381 4.94023 11.103
lowerback -6.92185 1.87134 0.795431
upperback -2.42324 2.61709 -7.20041
thorax 1.74623 1.31927 -7.77717
lowerneck -2.17749 14.5724 5.6362
upperneck 47.8272 24.2536 -1.60028
head 20.2644 10.6921 2.36413
rclavicle 2.93207e-015 -2.94201e-014
rhumerus -37.1151 3.1343 -92.8366
rradius 42.4704
rwrist -38.546
rhand -7.20374 -50.7135
rfingers 7.12502
rthumb 18.6749 -79.837
lclavicle 2.93207e-015 -2.94201e-014
lhumerus -28.1545 -20.8032 82.4562
lradius 41.1656
lwrist 73.7135
lhand -37.9762 -13.6108
lfingers 7.12502
lthumb -11.0164 16.0801
rfemur -51.2155 24.0425 -6.47743
rtibia 73.9202
rfoot 3.70425 10.1963
rtoes -41.8891
lfemur -32.4286 -6.71635 -36.0414
ltibia 38.1843
lfoot -16.637 10.4997
ltoes 5.83594
627
root 2.86736 16.7409 -0.0999423 15.4175 4.76838 11.2428
lowerback -6.88928 1.86975 0.597539
upperback -2.46078 2.6249 -7.21631
thorax 1.6823 1.32108 -7.67956
lowerneck -2.45745 14.6313 5.44698
upperneck 48.0703 24.3161 -1.34145
head 20.4105 10.6852 2.56462
rclavicle 3.16068e-014 -4.33351e-014
rhumerus -37.1027 3.29601 -92.8379
rradius 42.4834
rwrist -38.6261
rhand -7.42373 -50.5161
rfingers 7.12502
rthumb 18.4633 -79.6599
lclavicle 3.16068e-014 -4.33351e-014
lhumerus -28.1594 -20.6096 82.4309
lradius 41.2099
lwrist 73.6741
lhand -37.9762 -13.4164
lfingers 7.12502
lthumb -11.0163 16.2746
rfemur -51.4374 24.0643 -6.7742
rtibia 73.9385
rfoot 3.70461 10.387
rtoes -42.1154
lfemur -32.4801 -6.62608 -36.2424
ltibia 38.1317
lfoot -16.565 10.6224
ltoes 5.00437
628
root 2.86714 16.7744 -0.073126 14.4093 6.34005 11.7538
lowerback -6.10804 1.26874 0.311532
upperback -1.95072 1.83762 -7.16929
thorax 1.6568 0.932497 -7.5413
lowerneck -2.72356 14.6975 5.31208
upperneck 48.2398 24.4429 -1.23774
head 20.5598 10.6964 2.69771
rclavicle -2.48481e-014 6.0033e-014
rhumerus -37.024 3.48447 -92.8258
rradius 42.4975
rwrist -38.6877
rhand -7.14949 -50.7451
rfingers 7.12502
rthumb 18.727 -79.8636
lclavicle -2.48481e-014 6.0033e-014
lhumerus -28.1171 -20.4323 82.4072
lradius 41.2381
lwrist 73.7356
lhand -38.1073 -13.1094
lfingers 7.12502
lthumb -11.1427 16.5748
rfemur -48.889 23.5007 -5.90338
rtibia 73.784
rfoot 3.55578 9.70231
rtoes -41.5833
lfemur -30.7895 -7.48822 -36.5456
ltibia 37.9638
lfoot -16.7867 10.1158
ltoes 5.78759
629
root 2.87566 16.753 -0.0982542 15.3868 4.99517 11.3068
lowerback -6.89836 1.756 0.597192
upperback -2.38109 2.47605 -7.17711
thorax 1.74787 1.24851 -7.64949
lowerneck -2.6806 14.6835 5.38485
upperneck 48.1843 24.4524 -1.35446
head 20.557 10.7027 2.63123
rclavicle -2.34069e-014 2.10712e-014
rhumerus -37.0397 3.44632 -92.8039
rradius 42.6137
rwrist -38.6532
rhand -6.86824 -51.2067
rfingers 7.12502
rthumb 18.9975 -80.2989
lclavicle -2.34069e-014 2.10712e-014
lhumerus -28.0991 -20.4397 82.4032
lradius 41.2403
lwrist 73.7385
lhand -37.9291 -13.2098
lfingers 7.12502
lthumb -10.9709 16.4836
rfemur -51.1575 23.866 -6.71776
rtibia 73.8577
rfoot 4.04438 10.2816
rtoes -41.3271
lfemur -32.3675 -6.86933 -36.2365
ltibia 38.0699
lfoot -16.7856 10.245
ltoes 7.29402
630
root 2.87682 16.7541 -0.0986666 15.4109 4.9788 11.2318
lowerback -6.95965 1.79394 0.700182
upperback -2.38919 2.5219 -7.18064
thorax 1.78438 1.27235 -7.70778
lowerneck -2.58564 14.6472 5.44587
upperneck 48.1174 24.3861 -1.40044
head 20.5024 10.6919 2.57386
rclavicle -5.23301e-014 5.04913e-014
rhumerus -37.1182 3.31988 -92.7941
rradius 42.7192
rwrist -38.5738
rhand -7.20857 -51.0385
rfingers 7.12502
rthumb 18.6702 -80.1626
lclavicle -5.23301e-014 5.04913e-014
lhumerus -28.0353 -20.5153 82.3923
lradius 41.188
lwrist 73.8336
lhand -37.81 -13.5194
lfingers 7.12502
lthumb -10.856 16.18
rfemur -51.2031 23.9248 -6.67228
rtibia 73.8402
rfoot 4.03035 10.2789
rtoes -41.2961
lfemur -32.4101 -6.86329 -36.1567
ltibia 38.0574
lfoot -16.7876 10.2314
ltoes 7.58039
631
root 2.87514 16.7534 -0.0987989 15.348 4.95348 11.1611
lowerback -6.86956 1.8026 0.746488
upperback -2.39007 2.52696 -7.16332
thorax 1.73511 1.27389 -7.71758
lowerneck -2.51141 14.6319 5.47581
upperneck 47.9923 24.3688 -1.49742
head 20.422 10.6909 2.50429
rclavicle 1.93318e-014 -5.64548e-014
rhumerus -37.0934 3.30839 -92.807
rradius 42.6488
rwrist -38.5465
rhand -7.16872 -51.0957
rfingers 7.12502
rthumb 18.7086 -80.216
lclavicle 1.93318e-014 -5.64548e-014
lhumerus -27.9905 -20.4875 82.3592
lradius 41.1714
lwrist 73.9771
lhand -37.7475 -13.8397
lfingers 7.12502
lthumb -10.7957 15.8629
rfemur -51.1915 24.026 -6.58662
rtibia 73.8742
rfoot 3.5831 10.6132
rtoes -42.6472
lfemur -32.4872 -6.78637 -36.0996
ltibia 38.2081
lfoot -16.7506 10.3509
ltoes 7.28492
632
root 2.87603 16.7491 -0.0957018 15.3646 4.94385 11.1425
lowerback -6.97638 1.79508 0.729979
upperback -2.36697 2.5217 -7.13379
thorax 1.81595 1.27303 -7.67354
lowerneck -2.57731 14.6512 5.4394
upperneck 47.9986 24.4189 -1.51715
head 20.4463 10.6972 2.51823
rclavicle 4.09496e-014 -1.31198e-014
rhumerus -37.0127 3.3975 -92.7942
rradius 42.5407
rwrist -38.5852
rhand -6.57168 -51.5185
rfingers 7.12502
rthumb 19.2827 -80.5825
lclavicle 4.09496e-014 -1.31198e-014
lhumerus -27.948 -20.3666 82.339
lradius 41.1717
lwrist 74.014
lhand -37.7517 -14.1069
lfingers 7.12502
lthumb -10.7998 15.5955
rfemur -51.2305 24.0148 -6.58823
rtibia 73.8984
rfoot 3.15532 11.001
rtoes -43.8483
lfemur -32.4807 -6.72452 -36.123
ltibia 38.1553
lfoot -16.5887 10.5337
ltoes 5.89913
633
root 2.88088 16.7472 -0.0901916 15.3885 4.97862 11.2393
lowerback -7.17913 1.76064 0.644407
upperback -2.29465 2.49167 -7.12576
thorax 1.99621 1.26242 -7.61245
lowerneck -2.70844 14.6844 5.36214
upperneck 48.0793 24.4787 -1.45987
head 20.5136 10.7012 2.58673
rclavicle -2.49226e-014 4.49253e-014
rhumerus -36.9251 3.50359 -92.7669
rradius 42.473
rwrist -38.6094
rhand -6.45676 -51.4327
rfingers 7.12502
rthumb 19.3932 -80.4857
lclavicle -2.49226e-014 4.49253e-014
lhumerus -27.8865 -20.2743 82.3404
lradius 41.1979
lwrist 73.9994
lhand -38.154 -13.9603
lfingers 7.12502
lthumb -11.1878 15.7214
rfemur -51.1584 23.9136 -6.68199
rtibia 73.8821
rfoot 3.11697 11.032
rtoes -43.8607
lfemur -32.2905 -6.74665 -36.2641
ltibia 37.9125
lfoot -16.4443 10.5987
ltoes 4.93165
